<?xml version="1.0" encoding="UTF-8" standalone="no"?>
<svg
   xmlns:dc="http://purl.org/dc/elements/1.1/"
   xmlns:cc="http://creativecommons.org/ns#"
   xmlns:rdf="http://www.w3.org/1999/02/22-rdf-syntax-ns#"
   xmlns:svg="http://www.w3.org/2000/svg"
   xmlns="http://www.w3.org/2000/svg"
   xmlns:sodipodi="http://sodipodi.sourceforge.net/DTD/sodipodi-0.dtd"
   xmlns:inkscape="http://www.inkscape.org/namespaces/inkscape"
   fill="#FFFFFF"
   height="48"
   viewBox="0 0 24 24"
   width="48"
   version="1.1"
   id="svg3540"
   sodipodi:docname="icon.svg"
   inkscape:version="0.92+devel unknown">
  <metadata
     id="metadata3546">
    <rdf:RDF>
      <cc:Work
         rdf:about="">
        <dc:format>image/svg+xml</dc:format>
        <dc:type
           rdf:resource="http://purl.org/dc/dcmitype/StillImage" />
        <dc:title></dc:title>
      </cc:Work>
    </rdf:RDF>
  </metadata>
  <defs
     id="defs3544" />
  <sodipodi:namedview
     pagecolor="#ffffff"
     bordercolor="#666666"
     inkscape:document-rotation="0"
     borderopacity="1"
     objecttolerance="10"
     gridtolerance="10"
     guidetolerance="10"
     inkscape:pageopacity="0"
     inkscape:pageshadow="2"
     inkscape:window-width="1918"
     inkscape:window-height="1057"
     id="namedview3542"
     showgrid="true"
     inkscape:zoom="18.125"
     inkscape:cx="23.029141"
     inkscape:cy="24"
     inkscape:window-x="2048"
     inkscape:window-y="21"
     inkscape:window-maximized="0"
     inkscape:current-layer="svg3540">
    <inkscape:grid
       type="xygrid"
       id="grid3548" />
  </sodipodi:namedview>
  <path
     d="M0 0h24v24H0z"
     fill="none"
     id="path3536" />
  <path
     d="m 3,15 h 9.5 V 13 H 3 Z M 3,11 H 16.5 V 9 H 3 Z M 3,5 V 7 H 21 V 5 Z"
     id="path3538"
     style="fill:#ececec"
     inkscape:connector-curvature="0"
     sodipodi:nodetypes="ccccccccccccccc" />
  <path
     style="fill:#ffffff;stroke-width:0.39650983"
     inkscape:connector-curvature="0"
     d="m 17.665132,10.903138 c -0.252436,-0.9463202 0.19152,-1.9392653 1.046188,-2.5228213 1.083891,-0.7400669 2.566201,-0.4606434 3.306267,0.6232497 0.740067,1.0838906 0.460642,2.5662006 -0.623249,3.3062676 -0.85467,0.583556 -1.955016,0.533056 -2.744486,-0.04658 l -2.810662,1.919084 0.946488,1.386215 -1.386215,0.946489 -0.946489,-1.386216 -0.462072,0.315496 -0.946489,-1.386215 z M 20.5,11 C 20.860206,10.754056 20.953692,10.258116 20.707751,9.8979095 20.461808,9.5377044 19.965868,9.4442175 19.605662,9.69016 19.245457,9.9361026 19.151971,10.432042 19.397913,10.792247 19.643854,11.152456 20.139795,11.245943 20.5,11 Z"
     id="path3604"
     sodipodi:nodetypes="csssccccccccsssss" />
</svg>
